{"asset":{"generator":"Khronos glTF Blender I/O v1.4.40","version":"2.0"},"extensionsUsed":["KHR_lights_punctual"],"extensionsRequired":["KHR_lights_punctual"],"extensions":{"KHR_lights_punctual":{"lights":[{"color":[1,1,1],"intensity":1000,"type":"point","name":"Light"},{"color":[1,1,1],"intensity":10,"spot":{"innerConeAngle":0.3337942263919169,"outerConeAngle":0.39269909262657166},"type":"spot","name":"Spot"},{"color":[1,1,1],"intensity":10,"spot":{"innerConeAngle":0.3337942263919169,"outerConeAngle":0.39269909262657166},"type":"spot","name":"Spot.001"}]}},"scene":0,"scenes":[{"name":"Scene","nodes":[1,3,4,5,6,7,9,11]}],"nodes":[{"extensions":{"KHR_lights_punctual":{"light":0}},"name":"Light_Orientation","rotation":[-0.7071067690849304,0,0,0.7071067690849304]},{"children":[0],"extras":{},"name":"Light","rotation":[0.16907575726509094,0.7558803558349609,-0.27217137813568115,0.570947527885437],"scale":[-11.052824974060059,-11.052824974060059,-11.052825927734375],"translation":[5.324949741363525,7.667705535888672,-1.0968365669250488]},{"camera":0,"name":"Camera_Orientation","rotation":[-0.7071067690849304,0,0,0.7071067690849304]},{"children":[2],"name":"Camera","rotation":[0.483536034822464,0.33687159419059753,-0.20870360732078552,0.7804827094078064],"translation":[7.358891487121582,4.958309173583984,6.925790786743164]},{"extras":{},"mesh":0,"name":"Birth LH","rotation":[0.4992149770259857,0.5004618763923645,-0.48919954895973206,0.5108875632286072],"scale":[1.3890138864517212,1.3890140056610107,1.3890138864517212],"translation":[-0.337011456489563,-0.5328408479690552,2.471968650817871]},{"extras":{},"mesh":1,"name":"Torus","rotation":[0.7057920694351196,0.7057920694351196,0.04309926554560661,-0.043099287897348404],"scale":[0.7784251570701599,0.7784251570701599,0.7784251570701599],"translation":[-0.2343158721923828,-0.05703103542327881,-1.76766836643219]},{"extras":{},"mesh":2,"name":"Torus.001","rotation":[0.7057920694351196,0.7057920694351196,0.04309926554560661,-0.043099287897348404],"scale":[0.5589768290519714,0.5589767694473267,0.5589768290519714],"translation":[-0.21779096126556396,-0.10084378719329834,-1.734584093093872]},{"extras":{},"mesh":3,"name":"Torus.002","rotation":[0.7057920694351196,0.7057920694351196,0.04309926554560661,-0.043099287897348404],"scale":[0.37899449467658997,0.3789944648742676,0.37899449467658997],"translation":[-0.20421908795833588,-0.12838029861450195,-1.7256078720092773]},{"extensions":{"KHR_lights_punctual":{"light":1}},"name":"Spot_Orientation","rotation":[-0.7071067690849304,0,0,0.7071067690849304]},{"children":[8],"extras":{},"name":"Spot","scale":[0.8304831981658936,0.8304831981658936,0.8304831981658936],"translation":[-0.5105888843536377,11.296760559082031,-1]},{"extensions":{"KHR_lights_punctual":{"light":2}},"name":"Spot.001_Orientation","rotation":[-0.7071067690849304,0,0,0.7071067690849304]},{"children":[10],"extras":{},"name":"Spot.001","rotation":[0.24874934554100037,-0.30230242013931274,-0.15492308139801025,0.9070478677749634],"translation":[-0.5105888843536377,8.828460693359375,4.987163543701172]}],"cameras":[{"name":"Camera","perspective":{"aspectRatio":1.7777777777777777,"yfov":0.39959652046304894,"zfar":100,"znear":0.10000000149011612},"type":"perspective"}],"materials":[{"doubleSided":true,"name":"Material.009","pbrMetallicRoughness":{}},{"doubleSided":true,"name":"Material.002","pbrMetallicRoughness":{}},{"doubleSided":true,"name":"Material.003","pbrMetallicRoughness":{}},{"doubleSided":true,"name":"Material.004","pbrMetallicRoughness":{}}],"meshes":[{"name":"Birt LH","primitives":[{"attributes":{"POSITION":0,"NORMAL":1,"TEXCOORD_0":2},"indices":3,"material":0}]},{"name":"Torus","primitives":[{"attributes":{"POSITION":4,"NORMAL":5,"TEXCOORD_0":6},"indices":7,"material":1}]},{"name":"Torus.001","primitives":[{"attributes":{"POSITION":8,"NORMAL":9,"TEXCOORD_0":10},"indices":7,"material":2}]},{"name":"Torus.002","primitives":[{"attributes":{"POSITION":11,"NORMAL":12,"TEXCOORD_0":13},"indices":7,"material":3}]}],"accessors":[{"bufferView":0,"componentType":5126,"count":1866,"max":[2.9320003986358643,0.08999999612569809,0.009000000543892384],"min":[0.07500000298023224,-0.08999999612569809,-0.6820000410079956],"type":"VEC3"},{"bufferView":1,"componentType":5126,"count":1866,"type":"VEC3"},{"bufferView":2,"componentType":5126,"count":1866,"type":"VEC2"},{"bufferView":3,"componentType":5123,"count":3408,"type":"SCALAR"},{"bufferView":4,"componentType":5126,"count":338,"max":[1.584033727645874,0.12363734096288681,1.6784862279891968],"min":[-1.6739476919174194,-0.12363734096288681,0.12252997606992722],"type":"VEC3"},{"bufferView":5,"componentType":5126,"count":338,"type":"VEC3"},{"bufferView":6,"componentType":5126,"count":338,"type":"VEC2"},{"bufferView":7,"componentType":5123,"count":498,"type":"SCALAR"},{"bufferView":8,"componentType":5126,"count":338,"max":[1.584033727645874,0.12363734096288681,1.6784862279891968],"min":[-1.6739476919174194,-0.12363734096288681,0.12252997606992722],"type":"VEC3"},{"bufferView":9,"componentType":5126,"count":338,"type":"VEC3"},{"bufferView":10,"componentType":5126,"count":338,"type":"VEC2"},{"bufferView":11,"componentType":5126,"count":338,"max":[1.584033727645874,0.12363734096288681,1.6784862279891968],"min":[-1.6739476919174194,-0.12363734096288681,0.12252997606992722],"type":"VEC3"},{"bufferView":12,"componentType":5126,"count":338,"type":"VEC3"},{"bufferView":13,"componentType":5126,"count":338,"type":"VEC2"}],"bufferViews":[{"buffer":0,"byteLength":22392,"byteOffset":0},{"buffer":0,"byteLength":22392,"byteOffset":22392},{"buffer":0,"byteLength":14928,"byteOffset":44784},{"buffer":0,"byteLength":6816,"byteOffset":59712},{"buffer":0,"byteLength":4056,"byteOffset":66528},{"buffer":0,"byteLength":4056,"byteOffset":70584},{"buffer":0,"byteLength":2704,"byteOffset":74640},{"buffer":0,"byteLength":996,"byteOffset":77344},{"buffer":0,"byteLength":4056,"byteOffset":78340},{"buffer":0,"byteLength":4056,"byteOffset":82396},{"buffer":0,"byteLength":2704,"byteOffset":86452},{"buffer":0,"byteLength":4056,"byteOffset":89156},{"buffer":0,"byteLength":4056,"byteOffset":93212},{"buffer":0,"byteLength":2704,"byteOffset":97268}],"buffers":[{"byteLength":99972,"uri":"data:application/octet-stream;base64,"}]}